<svg xmlns="http://www.w3.org/2000/svg" xmlns:xlink="http://www.w3.org/1999/xlink" width="500" zoomAndPan="magnify" viewBox="0 0 375 374.999991" height="500" preserveAspectRatio="xMidYMid meet" version="1.0"><defs><g/><clipPath id="a70cdfcfd1"><path d="M 62.203125 69 L 300 69 L 300 287.941406 L 62.203125 287.941406 Z M 62.203125 69 " clip-rule="nonzero"/></clipPath></defs><rect x="-37.5" width="450" fill="#ffffff" y="-37.499999" height="449.999989" fill-opacity="1"/><rect x="-37.5" width="450" fill="#ffbd59" y="-37.499999" height="449.999989" fill-opacity="1"/><g clip-path="url(#a70cdfcfd1)"><path fill="#000000" d="M 100.082031 210.96875 C 98.570312 207.300781 96.628906 203.847656 95.550781 200.070312 C 95.226562 199.097656 94.578125 198.34375 93.820312 197.695312 C 91.773438 195.96875 89.503906 194.457031 87.238281 193.164062 C 86.375 192.730469 85.945312 193.378906 85.296875 193.59375 L 81.84375 193.054688 C 81.734375 192.515625 81.304688 192.191406 80.765625 192.082031 C 80.546875 192.082031 80.222656 192.191406 80.007812 192.191406 C 80.117188 192.296875 80.222656 192.621094 80.332031 192.621094 C 80.871094 192.730469 81.410156 192.839844 81.84375 192.945312 C 82.921875 194.027344 84.324219 194.78125 85.835938 195.105469 L 91.554688 198.019531 C 91.449219 198.773438 90.800781 198.558594 90.367188 198.449219 C 89.398438 198.34375 88.425781 198.019531 87.5625 197.585938 C 83.355469 195.320312 79.144531 193.054688 74.9375 190.679688 C 73.75 190.03125 73.855469 189.816406 75.367188 188.738281 C 74.074219 187.335938 72.992188 185.714844 72.128906 183.988281 C 70.296875 181.183594 67.707031 178.808594 64.683594 177.191406 C 64.035156 176.867188 63.386719 176.648438 62.742188 176.21875 C 62.632812 176.328125 62.203125 175.679688 62.308594 175.570312 C 62.632812 175.03125 63.28125 175.140625 63.710938 175.355469 C 64.792969 175.785156 65.761719 176.328125 66.625 176.972656 C 68.460938 178.269531 70.402344 179.347656 72.5625 180.210938 C 73.101562 180.425781 73.53125 180.75 74.074219 180.535156 C 75.042969 180.105469 75.691406 180.644531 76.230469 181.289062 C 77.203125 182.371094 78.066406 183.449219 79.035156 184.527344 C 81.195312 187.117188 83.785156 189.386719 86.808594 191.003906 C 88.535156 191.976562 90.152344 193.054688 91.878906 194.132812 C 92.09375 194.242188 92.417969 194.242188 92.636719 194.132812 C 92.851562 193.917969 92.851562 193.703125 92.851562 193.484375 C 92.527344 192.296875 92.09375 191.003906 91.664062 189.816406 C 90.476562 187.011719 89.613281 183.988281 89.074219 180.96875 C 88.425781 176.867188 87.023438 173.089844 86.160156 169.09375 C 86.160156 168.878906 86.375 168.664062 86.589844 168.449219 C 86.808594 168.230469 86.808594 168.554688 86.914062 168.554688 C 87.132812 168.773438 87.347656 168.878906 87.5625 169.09375 C 91.449219 173.84375 94.578125 179.023438 97.058594 184.636719 C 98.03125 186.472656 98.679688 188.523438 98.785156 190.570312 C 98.785156 192.730469 99.757812 194.996094 100.296875 197.15625 L 99.433594 197.910156 C 98.785156 196.074219 98.140625 194.132812 97.707031 192.296875 C 96.953125 188.414062 95.550781 184.746094 93.605469 181.289062 C 92.527344 179.347656 91.339844 177.40625 90.261719 175.464844 C 90.261719 175.355469 90.261719 175.246094 90.152344 175.03125 C 90.152344 174.921875 90.046875 174.816406 90.046875 174.707031 C 89.828125 174.382812 89.503906 173.84375 89.179688 174.058594 C 88.535156 174.492188 88.964844 174.921875 89.503906 175.246094 C 89.722656 176.433594 89.722656 177.730469 90.046875 178.917969 C 91.339844 184.527344 93.066406 189.925781 95.332031 195.210938 C 96.414062 197.480469 97.382812 199.746094 98.246094 202.121094 C 98.355469 203.199219 99.109375 204.0625 100.082031 204.386719 L 100.511719 201.472656 L 101.375 201.578125 C 101.375 202.660156 101.808594 203.738281 102.457031 204.710938 C 103.320312 203.847656 102.78125 202.550781 103.535156 201.578125 C 103.644531 201.796875 103.75 201.902344 103.859375 202.121094 C 104.289062 204.601562 103.96875 207.191406 102.886719 209.457031 C 102.78125 209.78125 102.238281 209.890625 102.023438 210.214844 L 102.132812 210.320312 C 102.132812 210.105469 102.132812 209.78125 102.132812 209.566406 C 102.132812 209.351562 102.023438 209.027344 101.917969 208.8125 C 101.699219 208.917969 101.59375 209.132812 101.484375 209.242188 C 101.375 209.457031 101.375 209.78125 101.269531 209.996094 Z M 84.324219 191.542969 C 83.246094 190.679688 82.273438 189.925781 81.304688 189.167969 C 78.820312 187.335938 76.445312 185.285156 74.289062 183.015625 C 74.074219 182.910156 73.855469 182.800781 73.53125 182.910156 C 73.210938 183.015625 73.210938 183.234375 73.425781 183.558594 C 74.9375 185.824219 76.664062 187.875 78.714844 189.601562 C 80.222656 190.894531 82.273438 191.652344 84.324219 191.542969 Z M 106.988281 229.746094 C 105.910156 227.15625 104.832031 224.566406 103.644531 221.976562 C 103.210938 221.113281 102.996094 220.140625 103.101562 219.0625 L 104.074219 218.308594 L 104.289062 218.199219 C 104.9375 220.789062 105.800781 223.378906 106.878906 225.863281 C 107.742188 225.324219 107.421875 224.78125 107.3125 224.242188 C 106.988281 222.949219 106.234375 221.761719 106.449219 220.25 L 108.714844 221.4375 C 109.792969 225.96875 112.0625 229.964844 113.894531 234.171875 C 114.433594 235.144531 114.867188 236.113281 115.40625 237.085938 C 115.515625 237.300781 115.730469 237.300781 116.054688 237.085938 C 116.378906 236.871094 116.703125 236.546875 117.023438 236.332031 C 117.347656 237.085938 117.566406 237.839844 117.566406 238.703125 C 117.242188 240.648438 117.890625 242.589844 119.398438 243.886719 C 120.15625 244.53125 119.832031 245.394531 119.617188 246.152344 C 118.429688 245.9375 117.996094 244.75 117.132812 244.210938 C 116.484375 242.804688 115.40625 241.726562 114.003906 241.1875 C 112.707031 240.648438 111.738281 239.246094 110.65625 238.164062 C 108.929688 236.332031 107.3125 234.496094 105.695312 232.660156 C 105.152344 232.230469 104.613281 231.796875 104.074219 231.472656 C 103.210938 230.609375 102.5625 229.53125 102.023438 228.34375 C 101.160156 225.96875 100.082031 223.703125 98.785156 221.546875 C 97.816406 219.710938 96.84375 217.769531 95.871094 215.933594 C 95.871094 215.609375 95.871094 215.394531 95.871094 215.070312 C 95.765625 214.636719 95.550781 214.207031 95.117188 214.316406 C 94.6875 214.421875 94.46875 214.636719 94.363281 215.179688 C 94.253906 215.71875 94.144531 215.933594 94.039062 216.367188 C 93.820312 216.472656 93.5 216.367188 93.390625 216.257812 L 93.605469 214.855469 C 93.714844 214.316406 93.714844 213.667969 93.175781 213.34375 C 91.015625 212.046875 88.859375 210.644531 86.699219 209.457031 C 85.621094 209.132812 84.539062 209.027344 83.460938 209.027344 C 84 207.515625 84 207.515625 82.707031 206.652344 C 79.035156 204.386719 75.042969 202.660156 70.941406 201.363281 C 70.617188 201.148438 70.296875 200.933594 69.972656 200.714844 C 68.890625 200.285156 68.570312 200.824219 68.460938 201.796875 C 68.460938 201.902344 68.246094 201.902344 68.136719 202.011719 C 67.382812 201.363281 66.734375 200.609375 65.65625 200.609375 C 65.4375 200.609375 65.113281 200.175781 65.222656 200.070312 C 65.4375 199.746094 65.761719 199.3125 66.085938 199.207031 C 68.027344 198.882812 70.078125 199.097656 71.914062 199.746094 C 76.125 201.148438 80.222656 202.984375 84.109375 205.25 C 85.621094 206.21875 86.914062 207.625 88.425781 208.59375 C 91.015625 210.320312 93.714844 211.832031 96.304688 213.453125 C 97.277344 213.992188 98.246094 214.636719 99.109375 215.285156 C 99.542969 215.609375 99.972656 216.257812 99.972656 216.6875 C 99.648438 218.414062 100.730469 219.601562 101.375 220.898438 C 102.132812 222.515625 102.78125 224.242188 103.320312 225.96875 C 103.859375 227.914062 104.832031 229.640625 106.339844 230.933594 C 107.636719 231.90625 108.714844 233.199219 109.578125 234.605469 C 110.011719 235.25 110.65625 235.898438 111.199219 236.4375 C 111.414062 236.546875 111.628906 236.65625 111.953125 236.546875 C 112.277344 236.4375 112.277344 236.222656 112.0625 235.898438 Z M 138.933594 272.699219 C 139.042969 272.917969 139.042969 273.238281 139.257812 273.347656 C 140.011719 273.671875 140.769531 273.886719 142.277344 274.425781 L 139.472656 274.535156 C 138.394531 273.996094 137.207031 274.320312 136.453125 275.183594 C 135.585938 276.476562 134.507812 276.476562 133.214844 276.152344 C 132.890625 276.152344 132.675781 276.046875 132.351562 276.152344 C 128.789062 274.101562 124.902344 272.269531 121.664062 269.785156 C 120.261719 268.707031 118.753906 267.628906 117.347656 266.546875 C 116.054688 265.46875 114.652344 264.605469 113.03125 264.066406 C 111.953125 263.742188 111.953125 263.417969 113.140625 262.554688 C 113.25 262.449219 113.355469 262.449219 113.570312 262.449219 C 114.328125 262.554688 115.082031 262.988281 115.621094 263.527344 C 116.054688 264.066406 116.59375 264.390625 117.242188 264.5 C 118.210938 264.714844 119.074219 265.144531 119.9375 265.578125 C 123.824219 268.058594 127.816406 270.21875 132.027344 272.054688 C 133.859375 273.023438 136.019531 273.132812 137.960938 272.484375 Z M 117.023438 236.332031 C 116.703125 236.546875 116.378906 236.871094 116.054688 237.085938 C 115.730469 237.300781 115.515625 237.410156 115.40625 237.085938 C 114.867188 236.113281 114.433594 235.144531 113.894531 234.171875 C 114.328125 234.171875 114.867188 233.957031 114.757812 233.523438 C 114.542969 232.230469 114.21875 231.042969 114.003906 229.855469 C 113.789062 228.777344 113.679688 227.695312 113.679688 226.511719 C 113.679688 226.292969 114.003906 225.96875 114.21875 225.863281 C 114.867188 225.539062 114.867188 226.078125 114.976562 226.511719 C 115.082031 226.941406 115.296875 226.941406 115.40625 227.15625 C 115.515625 226.941406 115.839844 226.617188 115.730469 226.511719 C 115.515625 225.539062 115.296875 224.566406 115.082031 223.703125 C 114.976562 223.164062 114.433594 222.410156 114.976562 222.191406 C 115.839844 221.871094 115.839844 222.839844 116.269531 223.378906 C 116.917969 224.136719 117.566406 224.78125 118.320312 225.429688 C 118.535156 225.539062 118.753906 225.648438 118.96875 225.539062 C 119.183594 225.324219 119.292969 225.105469 119.398438 224.890625 C 119.722656 223.917969 118.753906 222.625 119.9375 221.761719 C 120.15625 221.652344 120.046875 221.007812 119.832031 220.574219 C 118.753906 217.875 117.242188 215.609375 114.328125 214.53125 C 113.679688 214.421875 113.03125 213.882812 112.707031 213.34375 C 112.707031 213.234375 112.707031 213.019531 112.707031 212.910156 C 112.816406 212.804688 112.925781 212.695312 113.03125 212.695312 C 113.570312 212.695312 114.113281 212.695312 114.652344 212.804688 C 118.535156 214.097656 121.234375 217.550781 121.449219 221.652344 C 121.449219 222.734375 121.449219 223.917969 121.234375 225 C 121.234375 225.96875 120.800781 226.941406 120.046875 227.589844 C 119.074219 228.128906 119.722656 229.53125 118.429688 230.179688 C 116.917969 230.933594 116.269531 232.660156 117.023438 234.171875 C 117.242188 234.929688 117.132812 235.683594 117.023438 236.332031 Z M 153.179688 273.78125 C 151.34375 271.40625 150.914062 268.382812 150.265625 265.578125 C 149.832031 263.851562 149.617188 262.015625 147.78125 260.9375 C 145.949219 258.132812 144.222656 255.21875 144.976562 251.65625 C 145.085938 251.007812 145.191406 250.253906 145.300781 249.605469 C 145.625 247.878906 145.734375 247.769531 148.214844 247.339844 L 148.324219 247.554688 C 147.78125 248.308594 146.917969 248.847656 146.917969 249.929688 C 146.917969 251.007812 146.703125 251.871094 146.597656 252.84375 C 146.378906 255.757812 147.566406 258.5625 149.941406 260.398438 C 150.265625 261.691406 151.128906 260.722656 151.667969 260.722656 L 152.746094 261.367188 C 153.285156 261.691406 153.828125 261.691406 154.148438 261.152344 C 154.472656 260.613281 154.367188 259.859375 153.71875 259.535156 C 153.71875 259.535156 153.609375 259.535156 153.609375 259.425781 C 153.070312 259.316406 152.53125 259.316406 151.992188 259.316406 L 150.265625 258.886719 C 150.265625 258.238281 150.480469 257.699219 151.128906 257.699219 C 151.667969 257.808594 152.207031 257.914062 152.746094 258.023438 C 153.179688 258.132812 153.503906 257.914062 153.609375 257.484375 C 153.609375 257.265625 153.609375 257.160156 153.503906 256.945312 C 153.285156 256.402344 153.070312 255.972656 152.855469 255.433594 C 152.746094 255.109375 152.421875 254.675781 152.964844 254.355469 C 153.394531 254.136719 153.828125 254.246094 154.042969 254.675781 C 155.015625 255.863281 155.554688 257.375 155.554688 258.886719 C 155.445312 259.964844 155.554688 261.152344 155.554688 262.230469 C 155.554688 262.664062 155.230469 262.988281 154.90625 262.988281 C 154.90625 262.988281 154.796875 262.988281 154.796875 262.988281 C 153.933594 262.988281 153.179688 262.988281 153.179688 264.175781 C 153.179688 264.5 152.746094 264.929688 152.53125 265.253906 C 151.882812 266.007812 151.777344 267.089844 152.316406 267.953125 C 152.964844 269.679688 153.609375 271.296875 154.257812 273.023438 Z M 120.480469 251.332031 C 120.800781 250.578125 121.234375 249.820312 120.371094 249.171875 C 120.15625 248.851562 119.9375 248.527344 119.832031 248.09375 C 119.9375 247.664062 120.046875 247.339844 120.046875 247.015625 C 120.585938 247.664062 121.234375 248.203125 121.664062 248.957031 C 123.285156 251.332031 125.441406 253.167969 127.925781 254.355469 C 128.898438 254.894531 129.867188 255.539062 130.730469 256.296875 C 130.300781 257.050781 129.652344 256.835938 129.003906 256.945312 C 128.898438 256.726562 128.789062 256.402344 128.574219 256.296875 C 128.355469 256.1875 128.140625 256.296875 127.925781 256.296875 C 128.035156 256.402344 128.140625 256.726562 128.25 256.726562 C 128.464844 256.835938 128.789062 256.835938 129.003906 256.945312 C 129.113281 257.160156 129.113281 257.484375 129.21875 257.699219 C 130.730469 259.316406 132.242188 260.9375 133.753906 262.449219 C 134.183594 262.878906 134.722656 262.773438 135.046875 262.125 C 136.019531 261.367188 136.019531 261.367188 135.265625 260.398438 C 134.941406 259.640625 134.292969 258.886719 134.722656 257.914062 L 135.695312 257.050781 C 137.097656 259.425781 137.207031 262.339844 138.933594 264.605469 C 139.042969 264.714844 139.042969 264.820312 138.933594 264.929688 C 137.316406 266.871094 139.796875 267.414062 140.226562 268.707031 C 140.226562 268.921875 140.121094 269.246094 140.121094 269.460938 C 137.207031 267.628906 134.507812 265.363281 132.242188 262.773438 C 128.464844 258.671875 124.472656 255 120.480469 251.332031 Z M 120.046875 247.015625 C 119.9375 247.445312 119.832031 247.769531 119.832031 248.09375 C 118.859375 247.554688 117.347656 248.632812 116.59375 246.90625 C 116.269531 246.042969 115.191406 245.71875 114.21875 245.289062 C 111.738281 244.316406 109.039062 243.992188 106.664062 242.804688 C 102.996094 241.078125 99.21875 239.675781 95.65625 237.625 C 95.441406 237.085938 95.226562 236.546875 94.46875 236.976562 C 94.363281 236.976562 94.6875 237.625 94.792969 237.949219 C 94.902344 238.273438 95.226562 238.273438 95.441406 238.488281 C 96.304688 239.785156 97.167969 240.972656 97.921875 242.265625 C 98.140625 242.699219 97.921875 243.023438 97.382812 243.128906 C 95.007812 240.214844 92.636719 237.195312 90.261719 234.28125 C 89.828125 233.742188 89.398438 233.09375 89.074219 232.554688 C 88.859375 232.230469 88.859375 231.90625 89.179688 231.90625 C 89.398438 231.90625 89.722656 231.90625 89.9375 232.015625 C 90.585938 232.554688 91.230469 233.09375 91.878906 233.632812 C 93.066406 234.820312 94.46875 235.792969 96.089844 236.222656 C 98.246094 236.871094 100.296875 237.949219 102.132812 239.136719 C 103.75 240.324219 105.800781 240.324219 107.527344 241.296875 C 108.5 241.835938 109.578125 242.265625 110.65625 242.375 C 112.816406 242.699219 114.867188 243.777344 117.132812 243.777344 C 118.105469 244.316406 118.429688 245.613281 119.617188 245.71875 Z M 140.121094 269.246094 C 140.121094 269.03125 140.226562 268.707031 140.226562 268.492188 C 140.769531 268.597656 141.308594 268.816406 141.738281 269.140625 C 146.054688 272.269531 151.019531 274.535156 154.90625 278.097656 C 157.710938 280.46875 160.734375 282.519531 163.972656 284.140625 C 165.050781 284.789062 166.128906 285.433594 167.101562 286.191406 C 167.316406 286.296875 167.316406 286.621094 167.425781 286.945312 C 167.53125 287.269531 166.777344 287.59375 166.453125 287.484375 C 162.136719 285.757812 158.035156 283.707031 153.933594 281.441406 C 153.609375 281.226562 153.285156 280.902344 153.179688 280.46875 C 153.070312 279.066406 152.207031 277.773438 150.914062 277.125 C 147.890625 275.289062 145.085938 273.347656 142.277344 271.1875 C 141.738281 270.757812 141.199219 271.082031 140.660156 271.1875 L 140.660156 271.296875 C 140.984375 270.542969 140.769531 269.785156 140.121094 269.246094 Z M 108.066406 175.246094 C 108.929688 179.132812 108.609375 183.125 107.3125 186.902344 C 106.339844 190.464844 105.585938 194.027344 105.152344 197.585938 C 105.152344 198.449219 104.9375 199.207031 104.507812 199.960938 C 104.398438 200.070312 104.289062 200.070312 104.183594 200.070312 C 104.074219 200.070312 103.859375 199.960938 103.859375 199.960938 C 103.644531 199.421875 103.535156 198.882812 103.535156 198.34375 C 103.75 196.507812 103.96875 194.671875 104.183594 192.839844 C 104.289062 191.976562 104.183594 191.113281 103.644531 190.464844 C 102.78125 189.167969 102.023438 187.765625 101.59375 186.363281 C 102.132812 185.390625 102.5625 186.253906 102.996094 186.472656 C 103.210938 186.792969 103.425781 187.226562 103.644531 187.550781 C 104.289062 188.304688 104.613281 188.304688 105.046875 187.441406 C 105.910156 185.5 106.339844 183.558594 106.558594 181.398438 C 106.664062 179.886719 106.878906 178.375 107.097656 176.867188 C 107.3125 176.328125 107.421875 175.570312 108.066406 175.246094 Z M 93.390625 215.824219 C 92.957031 215.71875 92.527344 215.5 92.203125 215.609375 C 91.664062 215.933594 91.449219 216.472656 91.664062 217.011719 C 92.417969 220.035156 93.5 222.949219 96.519531 224.566406 C 97.277344 225 97.921875 225.429688 97.277344 226.511719 C 97.167969 226.617188 97.921875 227.375 98.355469 227.695312 C 99.542969 228.453125 100.730469 229.101562 101.917969 229.855469 C 102.132812 230.070312 102.238281 230.289062 102.132812 230.503906 C 102.023438 230.71875 101.699219 230.828125 101.484375 230.933594 C 101.160156 230.933594 100.945312 231.042969 100.621094 231.042969 C 95.441406 228.667969 92.417969 224.460938 90.367188 219.386719 C 90.046875 218.632812 89.9375 217.769531 89.828125 216.90625 C 89.613281 215.070312 90.585938 214.207031 92.636719 214.316406 C 92.957031 214.316406 93.175781 214.316406 93.5 214.421875 Z M 107.421875 169.203125 L 107.960938 168.125 C 108.285156 168.339844 108.824219 168.449219 108.929688 168.664062 C 110.65625 171.902344 112.492188 175.140625 113.25 178.699219 C 113.570312 180.75 113.789062 182.910156 113.679688 184.960938 C 113.570312 186.253906 113.464844 187.441406 113.140625 188.738281 L 112.277344 189.492188 C 111.738281 189.277344 111.414062 188.738281 111.519531 188.199219 C 111.628906 186.363281 111.738281 184.636719 111.738281 182.800781 C 111.84375 178.59375 110.226562 174.921875 108.5 171.253906 C 108.390625 171.039062 108.066406 171.039062 107.851562 170.824219 L 107.960938 170.929688 C 108.066406 170.175781 108.285156 169.417969 107.3125 168.988281 Z M 102.996094 186.472656 C 102.5625 186.253906 102.132812 185.390625 101.59375 186.363281 C 100.191406 184.203125 98.679688 181.9375 97.277344 179.78125 C 96.304688 178.269531 95.332031 176.757812 94.253906 175.246094 C 92.3125 172.765625 91.664062 169.527344 92.636719 166.503906 C 92.851562 166.183594 93.066406 165.859375 93.390625 165.535156 L 93.28125 165.425781 C 93.066406 166.183594 92.851562 167.046875 93.929688 167.367188 L 93.929688 167.261719 C 93.5 168.878906 93.714844 170.605469 94.578125 172.117188 C 96.84375 176.109375 98.894531 180.210938 101.917969 183.773438 L 103.101562 182.910156 C 103.535156 183.449219 103.75 184.203125 103.425781 184.851562 C 103.320312 185.390625 103.210938 185.929688 102.996094 186.472656 Z M 117.132812 264.5 C 116.484375 264.390625 115.945312 264.066406 115.515625 263.527344 C 114.976562 262.988281 114.21875 262.554688 113.464844 262.449219 C 114.433594 261.476562 115.730469 262.449219 116.59375 262.015625 C 119.074219 260.9375 121.234375 262.015625 123.394531 262.878906 C 126.628906 264.175781 129.761719 265.578125 132.996094 266.980469 C 133.96875 267.304688 134.722656 267.953125 135.265625 268.816406 L 134.078125 268.816406 C 130.191406 267.304688 126.199219 265.902344 122.3125 264.28125 C 120.910156 263.742188 119.398438 263.417969 117.78125 263.417969 C 117.132812 263.3125 117.132812 263.957031 117.132812 264.5 Z M 131.378906 224.675781 C 131.378906 225.648438 131.378906 226.617188 131.378906 227.695312 C 131.59375 227.589844 131.917969 227.480469 132.027344 227.265625 C 132.457031 226.402344 133.105469 226.402344 133.644531 227.15625 C 133.96875 227.480469 134.183594 228.453125 134.507812 227.375 C 134.722656 226.1875 135.480469 225.105469 136.453125 224.242188 C 136.882812 223.917969 137.207031 223.488281 137.53125 223.054688 C 137.316406 225.105469 136.773438 227.050781 135.695312 228.777344 C 135.046875 229.964844 134.078125 230.609375 132.566406 229.746094 C 132.132812 229.53125 131.59375 230.070312 131.8125 230.71875 C 132.457031 232.230469 133.105469 233.742188 133.753906 235.359375 C 132.890625 236.4375 132.457031 235.144531 131.917969 234.929688 C 131.054688 232.445312 129.652344 230.070312 130.191406 227.265625 C 130.625 226.292969 130.40625 225.214844 131.378906 224.675781 Z M 93.714844 156.144531 C 95.226562 157.117188 95.765625 158.734375 96.519531 160.246094 C 97.707031 162.726562 98.679688 165.425781 99.328125 168.125 C 99.648438 169.203125 99.648438 170.390625 99.328125 171.46875 C 99.328125 171.6875 99.003906 171.902344 98.785156 171.902344 C 98.570312 171.792969 98.355469 171.6875 98.140625 171.363281 C 97.921875 170.824219 97.816406 170.28125 97.707031 169.742188 C 97.167969 166.398438 96.089844 163.269531 94.578125 160.246094 C 94.363281 159.597656 93.820312 159.058594 93.28125 158.734375 C 93.5 157.980469 93.28125 157.222656 92.636719 156.792969 Z M 112.382812 189.492188 L 113.25 188.738281 C 113.140625 190.464844 112.925781 192.082031 112.925781 193.703125 C 113.03125 195.320312 112.0625 196.832031 110.550781 197.371094 C 109.039062 197.804688 108.714844 198.882812 108.5 200.175781 C 108.175781 202.121094 107.851562 204.0625 107.421875 206.003906 C 107.421875 206.21875 107.097656 206.328125 106.878906 206.542969 C 106.664062 206.761719 106.125 206.113281 106.125 205.789062 C 106.125 205.464844 106.125 205.25 106.125 204.925781 C 106.234375 203.523438 106.558594 202.121094 107.097656 200.824219 C 107.3125 200.394531 107.3125 199.746094 107.636719 199.207031 C 108.175781 198.125 106.664062 196.9375 107.636719 196.183594 C 108.285156 195.644531 109.578125 195.96875 110.441406 195.644531 C 110.980469 195.429688 111.304688 194.996094 111.519531 194.457031 C 111.84375 192.839844 112.0625 191.113281 112.382812 189.492188 Z M 103.320312 245.613281 C 103.535156 244.855469 104.074219 244.964844 104.613281 244.964844 C 106.015625 245.179688 107.3125 245.71875 108.5 246.582031 C 110.980469 248.09375 113.464844 249.171875 116.378906 248.851562 C 116.59375 248.851562 116.917969 249.066406 117.132812 249.171875 C 116.917969 250.253906 116.484375 251.007812 115.191406 250.898438 C 113.355469 250.792969 111.628906 250.253906 110.011719 249.390625 C 108.609375 248.417969 107.097656 247.769531 105.371094 247.554688 C 104.9375 246.691406 104.613281 245.613281 103.320312 245.613281 Z M 93.714844 156.144531 L 92.851562 156.683594 C 92.851562 157.441406 92.742188 158.195312 93.5 158.628906 C 93.929688 160.460938 94.363281 162.296875 94.902344 164.132812 C 95.117188 164.886719 95.117188 165.75 94.902344 166.503906 C 94.792969 166.9375 94.363281 167.152344 93.929688 167.152344 L 93.929688 167.261719 C 93.929688 166.613281 93.929688 165.859375 93.28125 165.320312 L 93.390625 165.425781 C 92.957031 162.511719 92.3125 159.707031 91.230469 157.007812 C 91.015625 156.46875 91.449219 155.820312 91.988281 155.714844 C 92.636719 155.390625 93.28125 155.28125 93.714844 156.144531 Z M 132.890625 253.058594 C 132.027344 252.625 132.027344 251.65625 131.8125 250.898438 C 131.378906 248.957031 130.515625 247.015625 130.625 244.964844 L 131.703125 244.101562 C 132.351562 243.886719 132.351562 243.238281 132.566406 242.804688 C 132.675781 242.160156 133.105469 241.511719 133.644531 241.078125 L 134.292969 242.050781 C 134.292969 242.480469 134.292969 242.914062 134.078125 243.238281 C 132.566406 245.394531 132.242188 248.09375 132.996094 250.578125 C 133.105469 251.441406 133.105469 252.195312 132.890625 253.058594 Z M 108.824219 221.546875 L 106.558594 220.359375 C 105.695312 220.035156 106.015625 218.847656 105.261719 218.414062 L 105.046875 214.636719 C 104.9375 214.207031 105.261719 213.773438 105.585938 213.667969 C 106.125 213.558594 106.339844 213.992188 106.558594 214.316406 C 107.742188 216.582031 108.066406 219.171875 108.824219 221.546875 Z M 108.066406 175.246094 C 107.3125 175.570312 107.3125 176.21875 107.097656 176.867188 C 106.878906 176.433594 106.664062 176.109375 106.664062 175.785156 C 106.558594 173.414062 106.125 171.039062 105.371094 168.773438 C 105.261719 168.230469 105.152344 167.691406 105.152344 167.152344 C 105.152344 166.722656 105.585938 166.398438 105.910156 166.503906 C 105.910156 166.503906 105.910156 166.503906 106.015625 166.503906 C 106.234375 166.503906 106.558594 166.722656 106.664062 166.9375 C 106.988281 167.691406 106.558594 168.664062 107.421875 169.203125 L 107.421875 169.09375 C 107.421875 169.851562 107.3125 170.605469 108.066406 171.039062 L 107.960938 170.929688 C 107.421875 172.332031 108.5 173.734375 108.066406 175.246094 Z M 81.84375 208.488281 C 81.410156 209.242188 80.546875 209.675781 79.683594 209.457031 C 77.203125 209.027344 74.828125 208.269531 72.453125 207.300781 C 71.375 206.761719 70.1875 206.21875 69 205.679688 C 69 205.464844 69.109375 205.25 69.109375 205.035156 L 70.835938 205.140625 L 73.210938 205.789062 C 73.964844 206.976562 75.257812 206.761719 76.445312 206.867188 C 77.957031 208.378906 80.007812 208.054688 81.84375 208.488281 Z M 166.777344 284.355469 C 167.207031 283.492188 167.640625 282.628906 168.070312 281.765625 C 168.394531 281.117188 169.152344 280.792969 169.800781 281.011719 C 170.554688 281.117188 171.09375 281.550781 171.308594 282.304688 C 171.527344 283.277344 171.632812 284.246094 171.527344 285.109375 C 171.527344 285.542969 170.878906 285.757812 170.664062 285.433594 C 169.691406 284.140625 168.503906 284.570312 167.316406 284.894531 C 167.207031 284.894531 166.992188 284.570312 166.777344 284.355469 Z M 169.582031 282.414062 C 169.476562 282.628906 169.257812 282.84375 169.152344 283.0625 C 169.152344 283.167969 169.257812 283.277344 169.367188 283.382812 C 169.476562 283.277344 169.691406 283.277344 169.691406 283.167969 C 169.800781 282.953125 169.691406 282.628906 169.582031 282.414062 Z M 132.351562 276.152344 C 132.675781 276.152344 132.890625 276.152344 133.214844 276.152344 C 134.507812 276.476562 135.585938 276.476562 136.453125 275.183594 C 137.207031 274.320312 138.394531 273.996094 139.472656 274.535156 L 137.207031 276.476562 C 138.285156 277.125 139.582031 276.910156 140.769531 277.125 C 140.445312 277.558594 139.796875 277.773438 139.257812 277.664062 L 135.480469 277.339844 C 134.941406 277.234375 134.292969 277.339844 133.96875 277.878906 C 133.105469 277.664062 132.675781 277.015625 132.351562 276.152344 Z M 133.96875 277.878906 C 134.292969 277.449219 134.941406 277.234375 135.480469 277.339844 L 139.257812 277.664062 C 139.796875 277.773438 140.445312 277.558594 140.769531 277.125 L 143.035156 276.046875 C 143.035156 276.046875 143.25 276.152344 143.25 276.261719 C 143.359375 276.371094 143.359375 276.476562 143.359375 276.695312 C 143.25 276.910156 143.140625 277.234375 142.925781 277.339844 C 141.199219 279.066406 138.609375 279.5 136.34375 278.527344 C 135.585938 278.3125 134.832031 278.203125 133.96875 277.878906 Z M 129.113281 218.199219 C 130.300781 216.90625 131.378906 216.796875 132.566406 217.660156 C 133.96875 218.523438 135.15625 219.710938 136.128906 221.113281 C 136.234375 221.328125 136.234375 221.652344 136.128906 221.871094 C 135.910156 222.085938 135.695312 222.085938 135.480469 221.976562 C 134.832031 221.652344 134.292969 221.222656 133.859375 220.683594 C 132.78125 219.277344 131.054688 218.414062 129.113281 218.199219 Z M 81.84375 208.488281 C 80.007812 208.054688 77.957031 208.378906 76.554688 206.761719 L 75.257812 205.035156 C 76.445312 205.035156 77.632812 205.574219 78.496094 206.328125 C 79.683594 207.515625 80.117188 207.625 81.628906 206.867188 L 82.597656 206.113281 C 84 207.085938 84 207.085938 83.355469 208.488281 Z M 148.214844 247.339844 C 148.429688 246.90625 148.863281 246.582031 149.1875 246.800781 C 151.667969 247.664062 153.71875 249.496094 154.796875 251.871094 C 154.796875 251.980469 154.796875 252.195312 154.691406 252.195312 C 154.472656 252.304688 154.042969 252.410156 153.933594 252.304688 C 152.53125 250.144531 150.375 248.851562 148.214844 247.554688 Z M 104.074219 218.414062 L 103.101562 219.171875 C 102.347656 218.523438 102.671875 217.660156 102.347656 216.90625 C 101.59375 214.855469 100.835938 212.910156 99.972656 210.859375 L 100.945312 209.996094 L 101.808594 210.214844 L 101.699219 210.105469 C 101.699219 211.402344 102.023438 212.804688 102.671875 213.992188 C 103.210938 215.609375 103.644531 217.011719 104.074219 218.414062 Z M 131.703125 236.65625 C 132.242188 236.871094 132.457031 237.410156 132.351562 237.949219 C 132.132812 240 131.917969 242.050781 131.703125 244.101562 L 130.625 244.964844 C 130.625 244.210938 130.625 243.34375 130.625 242.589844 C 130.515625 240.539062 130.945312 238.488281 131.703125 236.65625 Z M 131.378906 224.675781 C 130.300781 225.214844 130.625 226.292969 130.300781 227.15625 C 129.867188 226.402344 129.761719 225.539062 129.867188 224.675781 C 130.082031 223.054688 129.761719 221.328125 129.003906 219.820312 C 130.839844 220.789062 130.839844 220.789062 131.378906 224.675781 Z M 101.808594 179.457031 C 100.296875 178.59375 100.082031 177.082031 99.867188 175.570312 C 99.867188 175.464844 100.296875 175.246094 100.511719 175.246094 C 101.484375 175.570312 102.023438 176.433594 102.023438 177.40625 C 102.023438 178.160156 101.917969 178.808594 101.808594 179.457031 Z M 103.320312 245.613281 C 104.613281 245.613281 104.9375 246.691406 105.476562 247.554688 C 104.722656 247.769531 103.96875 247.984375 103.101562 248.09375 C 102.347656 248.308594 101.484375 247.878906 101.160156 247.121094 C 102.5625 247.121094 102.5625 247.121094 102.132812 245.71875 L 103.320312 245.71875 Z M 134.078125 238.703125 C 133.859375 237.625 134.832031 236.976562 135.046875 236.113281 C 135.265625 235.792969 135.695312 235.792969 135.695312 236.007812 C 135.804688 237.625 136.019531 239.246094 134.617188 240.433594 C 134.617188 239.890625 134.832031 239.136719 134.078125 238.703125 Z M 99.328125 197.910156 L 100.191406 197.15625 C 101.269531 198.558594 100.511719 200.285156 101.054688 201.6875 L 100.191406 201.578125 C 99.328125 200.609375 99.757812 199.207031 99.328125 197.910156 Z M 102.132812 245.613281 C 102.5625 247.121094 102.5625 247.121094 101.160156 247.015625 C 100.621094 246.042969 99.648438 245.613281 98.785156 244.964844 C 98.894531 244.53125 99.328125 244.210938 99.757812 244.316406 C 99.867188 244.316406 99.867188 244.316406 99.972656 244.425781 C 100.835938 244.855469 101.484375 245.289062 102.132812 245.613281 Z M 153.179688 273.78125 L 154.257812 272.917969 C 154.691406 273.5625 155.015625 274.320312 155.335938 275.074219 C 155.554688 275.398438 155.445312 275.828125 155.121094 276.046875 C 155.121094 276.046875 155.121094 276.046875 155.015625 276.046875 C 154.90625 276.152344 154.472656 275.9375 154.367188 275.722656 C 154.042969 275.183594 153.609375 274.425781 153.179688 273.78125 Z M 114.21875 215.933594 C 114.867188 216.6875 115.082031 217.769531 114.867188 218.738281 C 114.867188 218.957031 114.433594 219.0625 114.21875 219.171875 C 114.003906 219.277344 113.679688 219.171875 113.679688 218.738281 C 113.464844 217.769531 113.679688 216.796875 114.21875 215.933594 Z M 103.101562 182.910156 L 101.917969 183.773438 C 102.238281 182.371094 102.238281 180.859375 101.808594 179.457031 L 101.699219 179.5625 C 102.886719 180.210938 103.535156 181.613281 103.101562 182.910156 Z M 81.949219 193.164062 L 85.40625 193.703125 L 85.945312 195.320312 C 84.433594 194.996094 83.03125 194.242188 81.949219 193.164062 Z M 151.558594 260.613281 C 150.914062 260.613281 150.15625 261.585938 149.832031 260.289062 L 150.15625 258.777344 L 151.882812 259.210938 Z M 104.289062 210.859375 C 104.289062 210.644531 104.398438 210.320312 104.507812 210.105469 C 104.613281 209.996094 104.9375 209.78125 104.9375 209.890625 C 105.261719 210.644531 105.152344 211.402344 104.613281 212.046875 C 104.507812 212.046875 104.183594 211.832031 104.183594 211.726562 C 104.289062 211.402344 104.289062 211.078125 104.289062 210.859375 Z M 134.078125 238.703125 C 134.832031 239.136719 134.617188 239.890625 134.617188 240.539062 L 134.183594 242.050781 L 133.539062 241.078125 Z M 69.214844 204.925781 C 69.214844 205.140625 69.109375 205.355469 69.109375 205.574219 C 68.460938 205.25 67.921875 205.035156 67.273438 204.710938 C 67.164062 204.601562 67.058594 204.386719 67.058594 204.386719 C 67.058594 204.386719 67.382812 204.0625 67.597656 204.0625 C 68.136719 204.0625 68.675781 204.171875 69.214844 204.277344 C 69.324219 204.492188 69.324219 204.710938 69.214844 204.925781 Z M 138.933594 272.699219 L 137.855469 272.484375 C 138.5 271.511719 139.582031 271.082031 140.769531 271.296875 L 140.769531 271.1875 C 140.550781 272.054688 139.796875 272.59375 138.933594 272.699219 Z M 134.722656 257.808594 C 134.078125 257.050781 133.96875 255.972656 134.292969 255 C 135.265625 255.21875 135.371094 256.1875 135.585938 256.945312 Z M 156.417969 257.484375 L 156.742188 256.835938 C 156.847656 257.050781 156.847656 257.375 156.847656 257.589844 C 156.742188 257.808594 156.632812 258.023438 156.523438 258.238281 Z M 134.183594 268.707031 L 135.371094 268.707031 C 135.480469 268.707031 135.695312 268.707031 135.804688 268.707031 C 136.019531 268.816406 136.128906 269.03125 136.34375 269.246094 C 136.128906 269.355469 136.019531 269.570312 135.804688 269.679688 C 135.046875 269.679688 134.402344 269.246094 134.183594 268.707031 Z M 133.429688 254.785156 C 133.214844 254.785156 132.996094 254.675781 132.78125 254.570312 L 132.890625 252.949219 L 132.78125 252.949219 C 133.753906 253.382812 133.539062 254.136719 133.429688 254.785156 Z M 81.949219 193.054688 C 81.410156 192.945312 80.871094 192.945312 80.441406 192.730469 C 80.332031 192.730469 80.222656 192.40625 80.117188 192.296875 C 80.332031 192.191406 80.546875 192.191406 80.871094 192.191406 C 81.304688 192.191406 81.734375 192.621094 81.949219 193.054688 Z M 90.152344 175.464844 C 89.9375 175.464844 89.613281 175.355469 89.398438 175.246094 C 88.859375 174.921875 88.535156 174.601562 89.074219 174.058594 C 89.398438 173.84375 89.722656 174.382812 89.9375 174.707031 C 90.046875 174.816406 90.046875 174.921875 90.046875 175.03125 C 90.152344 175.246094 90.152344 175.355469 90.152344 175.464844 Z M 95.980469 215.609375 L 94.144531 216.042969 C 94.253906 215.609375 94.363281 215.285156 94.46875 214.855469 C 94.578125 214.421875 94.792969 214.097656 95.226562 213.992188 C 95.65625 213.882812 95.871094 214.316406 95.980469 214.746094 C 95.980469 215.070312 95.980469 215.285156 95.980469 215.609375 Z M 95.441406 238.597656 C 95.226562 238.382812 94.902344 238.273438 94.792969 238.058594 C 94.6875 237.839844 94.363281 237.085938 94.46875 237.085938 C 95.117188 236.65625 95.441406 237.085938 95.65625 237.734375 C 95.550781 237.949219 95.441406 238.273438 95.441406 238.597656 Z M 135.046875 261.90625 C 134.078125 261.261719 134.507812 260.722656 135.265625 260.179688 C 136.128906 261.152344 136.128906 261.152344 135.046875 261.90625 Z M 129.003906 256.835938 C 128.789062 256.835938 128.464844 256.726562 128.25 256.621094 C 128.140625 256.511719 128.035156 256.296875 127.925781 256.1875 C 128.140625 256.1875 128.464844 256.082031 128.574219 256.1875 C 128.679688 256.296875 128.789062 256.621094 129.003906 256.835938 Z M 93.390625 158.734375 C 92.636719 158.304688 92.636719 157.546875 92.742188 156.792969 C 93.390625 157.222656 93.605469 157.980469 93.390625 158.734375 Z M 81.628906 206.867188 C 80.117188 207.625 79.683594 207.515625 78.496094 206.328125 Z M 169.582031 282.414062 C 169.691406 282.628906 169.691406 282.953125 169.691406 283.167969 C 169.691406 283.277344 169.476562 283.277344 169.367188 283.382812 C 169.257812 283.277344 169.152344 283.167969 169.152344 283.0625 C 169.367188 282.84375 169.476562 282.628906 169.582031 282.414062 Z M 192.679688 69.914062 C 159.546875 69.914062 128.140625 85.242188 107.851562 111.464844 L 108.929688 112.222656 C 126.089844 89.988281 151.558594 75.527344 179.511719 72.074219 C 237.464844 64.628906 290.457031 105.53125 297.902344 163.484375 C 304.378906 213.992188 274.050781 261.90625 225.59375 277.558594 L 225.917969 278.851562 C 282.144531 260.398438 312.796875 199.851562 294.449219 143.625 C 279.988281 99.703125 238.976562 70.023438 192.679688 69.914062 Z M 192.679688 69.914062 " fill-opacity="1" fill-rule="nonzero"/></g><g fill="#000000" fill-opacity="1"><g transform="translate(148.125065, 112.15745)"><g><path d="M 6 -8.625 L 6.90625 -5.921875 C 6.671875 -5.125 6.09375 -4.4375 5.359375 -3.984375 C 3.265625 -2.703125 0.859375 -4.15625 -1.125 -7.375 C -3.203125 -10.734375 -3.078125 -13.4375 -1.171875 -14.609375 C -0.390625 -15.09375 0.28125 -15.21875 0.859375 -15.203125 L 2.96875 -13.171875 L 3.5625 -13.53125 L 1.84375 -16.328125 C 0.6875 -16.25 -0.40625 -16.046875 -1.609375 -15.296875 C -4.6875 -13.40625 -4.921875 -9.890625 -2.640625 -6.203125 C -0.328125 -2.4375 2.921875 -1.484375 5.8125 -3.25 C 6.765625 -3.84375 7.75 -4.875 8.421875 -5.984375 L 6.578125 -8.984375 Z M 6 -8.625 "/></g></g></g><g fill="#000000" fill-opacity="1"><g transform="translate(161.421039, 104.424799)"><g><path d="M 9.375 -4.265625 L 4.75 -8.4375 C 6.109375 -9.65625 6.5 -11.390625 5.953125 -12.859375 C 5.15625 -15.078125 3.265625 -15.640625 1 -14.828125 L -3.921875 -13.046875 L -3.734375 -12.546875 L -2.21875 -12.71875 L 1.828125 -1.59375 L 0.53125 -0.78125 L 0.71875 -0.265625 L 5.125 -1.859375 L 4.9375 -2.375 L 3.46875 -2.1875 L 1.75 -6.921875 L 2.859375 -7.328125 C 3.03125 -7.390625 3.21875 -7.453125 3.359375 -7.53125 L 5.390625 -5.453125 L 8.1875 -2.96875 L 11 -3.984375 L 10.8125 -4.5 Z M 1.421875 -7.828125 L -0.5625 -13.296875 L 0.75 -13.890625 C 2.40625 -14.484375 3.75 -13.75 4.328125 -12.125 C 4.96875 -10.375 4.203125 -8.75 2.671875 -8.203125 Z M 1.421875 -7.828125 "/></g></g></g><g fill="#000000" fill-opacity="1"><g transform="translate(176.417521, 99.480203)"><g><path d="M 8.171875 -4.78125 L 8.03125 -2.15625 L 3.8125 -1.5 L 2.96875 -7.09375 L 6.203125 -7.5625 L 6.75 -6.078125 L 7.375 -6.171875 L 6.78125 -10.0625 L 6.15625 -9.96875 L 6.0625 -8.453125 L 2.84375 -7.921875 L 2.03125 -13.1875 L 6.0625 -13.8125 L 6.953125 -11.421875 L 7.59375 -11.515625 L 7.078125 -14.828125 L -1.296875 -13.546875 L -1.21875 -13.015625 L 0.328125 -12.921875 L 2.109375 -1.203125 L 0.671875 -0.65625 L 0.75 -0.109375 L 9.34375 -1.421875 L 8.8125 -4.875 Z M 8.171875 -4.78125 "/></g></g></g><g fill="#000000" fill-opacity="1"><g transform="translate(190.582279, 97.622877)"><g><path d="M 11.125 -0.296875 L 7.8125 -13.5 L 6.21875 -13.296875 L 1.46875 -0.828125 L 0.125 -0.546875 L 0.09375 0 L 4.078125 0.203125 L 4.109375 -0.34375 L 2.640625 -0.796875 L 3.9375 -4.40625 L 8.359375 -4.1875 L 9.296875 -0.40625 L 7.875 -0.15625 L 7.84375 0.390625 L 12.328125 0.609375 L 12.359375 0.0625 Z M 4.234375 -5.28125 L 6.546875 -11.8125 L 6.609375 -11.8125 L 7.28125 -8.578125 L 8.140625 -5.09375 Z M 4.234375 -5.28125 "/></g></g></g><g fill="#000000" fill-opacity="1"><g transform="translate(206.914308, 98.932642)"><g><path d="M 13.171875 -10.640625 L 3.828125 -13.046875 L 2.84375 -9.234375 L 3.453125 -9.078125 L 4.78125 -11.890625 L 7.4375 -11.203125 L 4.5 0.1875 L 2.765625 0.125 L 2.625 0.671875 L 7.59375 1.953125 L 7.734375 1.40625 L 6.203125 0.625 L 9.140625 -10.765625 L 11.796875 -10.078125 L 11.59375 -6.96875 L 12.1875 -6.828125 Z M 13.171875 -10.640625 "/></g></g></g><g fill="#000000" fill-opacity="1"><g transform="translate(220.996892, 103.097438)"><g><path d="M 10.375 -9.6875 L 10.578125 -10.171875 L 6.203125 -12.109375 L 6 -11.625 L 7.234375 -10.703125 L 2.4375 0.125 L 0.921875 -0.1875 L 0.703125 0.3125 L 5.078125 2.25 L 5.296875 1.75 L 4.03125 0.828125 L 8.828125 -10 Z M 10.375 -9.6875 "/></g></g></g><g fill="#000000" fill-opacity="1"><g transform="translate(230.469807, 107.400799)"><g><path d="M 17.71875 -4.46875 L 14.28125 -6.78125 L 13.984375 -6.34375 L 15.25 -5.03125 L 6.59375 1.9375 L 6.5625 1.921875 L 7.6875 -1.4375 L 9.796875 -8.75 L 11.296875 -8.15625 L 11.59375 -8.59375 L 7.75 -11.171875 L 7.453125 -10.734375 L 8.265625 -9.84375 L 4.53125 3.375 L 5.609375 3.78125 L 16.28125 -4.390625 L 17.421875 -4.03125 Z M 17.71875 -4.46875 "/></g></g></g><g fill="#000000" fill-opacity="1"><g transform="translate(243.642133, 116.856975)"><g><path d="M 8.65625 3.8125 L 6.46875 5.234375 L 3.46875 2.203125 L 7.5 -1.78125 L 9.765625 0.578125 L 8.890625 1.890625 L 9.328125 2.328125 L 12.109375 -0.421875 L 11.671875 -0.859375 L 10.40625 -0.046875 L 8.078125 -2.359375 L 11.875 -6.09375 L 14.734375 -3.1875 L 13.3125 -1.078125 L 13.765625 -0.609375 L 16.15625 -2.96875 L 10.203125 -9 L 9.828125 -8.625 L 10.640625 -7.328125 L 2.21875 1 L 0.921875 0.15625 L 0.53125 0.546875 L 6.640625 6.734375 L 9.125 4.28125 Z M 8.65625 3.8125 "/></g></g></g><g fill="#000000" fill-opacity="1"><g transform="translate(253.445045, 127.56725)"><g/></g></g><g fill="#000000" fill-opacity="1"><g transform="translate(258.288264, 134.415205)"><g><path d="M 9.375 1.375 C 9.40625 -0.203125 9.515625 -1.6875 10.90625 -2.421875 C 12.171875 -3.09375 13.34375 -2.71875 13.953125 -1.546875 C 14.3125 -0.875 14.40625 -0.25 14.265625 0.265625 L 12.1875 1.921875 L 12.5 2.515625 L 15.1875 1.109375 C 15.34375 0.359375 15.21875 -0.859375 14.65625 -1.9375 C 13.484375 -4.15625 11.578125 -4.71875 9.859375 -3.8125 C 7.890625 -2.78125 7.703125 -0.890625 7.640625 0.96875 C 7.59375 2.546875 7.53125 4.046875 6.09375 4.796875 C 4.6875 5.546875 3.390625 5.078125 2.703125 3.765625 C 2.25 2.921875 2.140625 1.953125 2.171875 1.375 L 4.484375 -0.484375 L 4.1875 -1.0625 L 1.078125 0.578125 C 1.0625 1.546875 1.28125 3.03125 1.90625 4.21875 C 3.15625 6.59375 5.203125 7.25 7.203125 6.203125 C 9.28125 5.109375 9.3125 3.171875 9.375 1.375 Z M 9.375 1.375 "/></g></g></g><g fill="#000000" fill-opacity="1"><g transform="translate(264.372988, 146.517136)"><g><path d="M 1.5 6.109375 C 2.484375 9.453125 5.8125 10.5 9.96875 9.28125 C 14.203125 8.03125 15.984375 5.25 15.109375 2.234375 C 14.125 -1.109375 10.828125 -2.140625 6.703125 -0.9375 C 2.421875 0.328125 0.625 3.09375 1.5 6.109375 Z M 2.359375 5.984375 C 1.71875 3.828125 3.78125 1.90625 7.40625 0.84375 C 11.21875 -0.28125 13.734375 0.421875 14.3125 2.359375 C 14.9375 4.515625 12.875 6.421875 9.234375 7.484375 C 5.4375 8.609375 2.921875 7.90625 2.359375 5.984375 Z M 2.359375 5.984375 "/></g></g></g><g fill="#000000" fill-opacity="1"><g transform="translate(268.552279, 162.632291)"><g><path d="M 4.9375 8.484375 L 1.640625 8.1875 L 1.28125 3.90625 L 13.015625 2.90625 L 13.484375 4.4375 L 14.015625 4.390625 L 13.609375 -0.390625 L 13.078125 -0.34375 L 12.859375 1.171875 L 1.0625 2.171875 L 0.609375 0.71875 L 0.0625 0.765625 L 0.8125 9.5625 L 5 9.203125 Z M 4.9375 8.484375 "/></g></g></g><g fill="#000000" fill-opacity="1"><g transform="translate(269.476642, 176.593079)"><g><path d="M 12.09375 13.6875 L 12.578125 9.53125 L 12.046875 9.46875 L 11.40625 11.109375 L 3.015625 10.140625 C 0.59375 9.859375 -0.40625 8.484375 -0.203125 6.703125 C 0.015625 4.828125 1.46875 3.90625 3.96875 4.203125 L 12.15625 5.140625 L 12.34375 6.84375 L 12.875 6.90625 L 13.4375 2.109375 L 12.90625 2.046875 L 12.390625 3.390625 L 3.96875 2.421875 C 0.953125 2.078125 -0.71875 3.78125 -1.03125 6.484375 C -1.34375 9.1875 0.171875 10.90625 3.078125 11.234375 L 11.296875 12.1875 L 11.5625 13.625 Z M 12.09375 13.6875 "/></g></g></g><g fill="#000000" fill-opacity="1"><g transform="translate(267.06613, 192.993629)"><g><path d="M 9.75 13.84375 L 12.765625 4.703125 L 9.03125 3.46875 L 8.828125 4.0625 L 11.546875 5.5625 L 10.6875 8.171875 L -0.484375 4.484375 L -0.328125 2.75 L -0.859375 2.578125 L -2.453125 7.453125 L -1.921875 7.625 L -1.03125 6.140625 L 10.140625 9.828125 L 9.265625 12.4375 L 6.203125 12.03125 L 6.015625 12.609375 Z M 9.75 13.84375 "/></g></g></g><g fill="#000000" fill-opacity="1"><g transform="translate(261.978975, 206.769679)"><g><path d="M 8.984375 10.984375 L 9.453125 11.21875 L 11.671875 6.984375 L 11.203125 6.75 L 10.203125 7.921875 L -0.28125 2.421875 L 0.125 0.921875 L -0.359375 0.671875 L -2.578125 4.90625 L -2.09375 5.15625 L -1.078125 3.96875 L 9.40625 9.46875 Z M 8.984375 10.984375 "/></g></g></g><g fill="#000000" fill-opacity="1"><g transform="translate(257.078251, 215.934487)"><g><path d="M -4.078125 4.78125 C -6.21875 7.53125 -5.109375 10.84375 -1.703125 13.5 C 1.78125 16.203125 5.078125 16.046875 7 13.578125 C 9.140625 10.828125 8.078125 7.546875 4.671875 4.90625 C 1.15625 2.171875 -2.140625 2.3125 -4.078125 4.78125 Z M -3.484375 5.421875 C -2.09375 3.640625 0.65625 4.203125 3.640625 6.515625 C 6.78125 8.953125 7.6875 11.390625 6.453125 12.984375 C 5.0625 14.765625 2.328125 14.203125 -0.65625 11.875 C -3.796875 9.4375 -4.703125 7 -3.484375 5.421875 Z M -3.484375 5.421875 "/></g></g></g><g fill="#000000" fill-opacity="1"><g transform="translate(246.574659, 228.75794)"><g><path d="M -0.875 18.359375 L 2.21875 15.78125 L 1.890625 15.375 L 0.515625 16.0625 L -6 8.453125 L -5.96875 8.4375 L -4 9.265625 L 5.265625 13.28125 L 8.171875 10.859375 L 7.84375 10.453125 L 6.375 11.1875 L -1.109375 2.125 L -0.140625 0.8125 L -0.484375 0.390625 L -3.78125 3.125 L -3.4375 3.546875 L -1.953125 2.8125 L 5.40625 11.375 L 5.359375 11.40625 L 3.234375 10.484375 L -7.53125 5.859375 L -8.375 6.9375 L -0.3125 16.75 L -1.203125 17.953125 Z M -0.875 18.359375 "/></g></g></g><g fill="#000000" fill-opacity="1"><g transform="translate(233.207822, 239.083785)"><g><path d="M -1.3125 9.390625 C 0.265625 9.40625 1.78125 9.5 2.515625 10.875 C 3.1875 12.140625 2.828125 13.328125 1.65625 13.953125 C 1 14.3125 0.359375 14.390625 -0.140625 14.265625 L -1.828125 12.21875 L -2.421875 12.53125 L -0.984375 15.203125 C -0.234375 15.328125 0.984375 15.21875 2.0625 14.640625 C 4.265625 13.453125 4.8125 11.53125 3.890625 9.8125 C 2.84375 7.859375 0.96875 7.6875 -0.90625 7.640625 C -2.46875 7.625 -3.984375 7.5625 -4.75 6.125 C -5.5 4.71875 -5.0625 3.4375 -3.75 2.734375 C -2.90625 2.28125 -1.921875 2.15625 -1.359375 2.203125 L 0.53125 4.484375 L 1.109375 4.171875 L -0.546875 1.078125 C -1.546875 1.078125 -3.015625 1.296875 -4.203125 1.9375 C -6.578125 3.203125 -7.21875 5.265625 -6.140625 7.25 C -5.03125 9.328125 -3.09375 9.359375 -1.3125 9.390625 Z M -1.3125 9.390625 "/></g></g></g><g fill="#000000" fill-opacity="1"><g transform="translate(144.603496, 221.684325)"><g><path d="M 83.5625 -91.796875 L 56.296875 -91.796875 L 56.296875 -88.15625 L 66.421875 -85.71875 L 67.640625 -18.09375 L 67.359375 -18.09375 L 60.609375 -31.046875 L 29.703125 -91.796875 L 4.1875 -91.796875 L 4.1875 -88.15625 L 14.984375 -85.59375 L 14.84375 -6.34375 L 4.1875 -3.640625 L 4.1875 0 L 33.078125 0 L 33.078125 -3.640625 L 22.28125 -6.34375 L 20.796875 -82.34375 L 21.1875 -82.34375 L 28.21875 -68.4375 L 64.390625 1.890625 L 73.4375 0 L 73.703125 -85.859375 L 83.5625 -88.15625 Z M 83.5625 -91.796875 "/></g></g></g></svg>